<?xml version="1.0" encoding="utf-8"?>
<!DOCTYPE svg PUBLIC "-//W3C//DTD SVG 1.0//EN" "http://www.w3.org/TR/2001/REC-SVG-20010904/DTD/svg10.dtd">
<svg version="1.0" xmlns="http://www.w3.org/2000/svg" width="512px" height="512px" viewBox="0 0 512 512" preserveAspectRatio="xMidYMid meet">
 <g fill="none">
  <path d="M62.75 510.75 c-15.95 -4.15 -27.25 -10.65 -39.05 -22.45 -11.90 -11.95 -18.55 -23.65 -22.70 -39.80 -1 -3.90 -1 -5.45 -1 -192.40 l0 -188.50 1.20 -4.65 c2.55 -9.75 6.45 -18.45 12.20 -27.20 4.45 -6.70 15.45 -17.80 22.10 -22.20 7.80 -5.20 20.55 -11.05 24.15 -11.05 0.75 0 2.45 -0.50 3.75 -1.15 l2.35 -1.10 189.45 -0.15 189.40 -0.10 4.90 1.25 c12.55 3.15 24.55 9.40 34.25 17.80 13.25 11.45 22.80 26.80 26.95 43.35 l1.30 5.05 0 188.40 c0 184.50 -0.05 188.50 -0.95 192.40 -7.45 30.85 -31 54.75 -61.45 62.45 l-5.05 1.30 -188.65 0 -188.65 -0.05 -4.50 -1.20z m298.85 -3 c16.25 -2.20 27.10 -5.50 42.65 -13 14.70 -7.05 26.50 -16.35 37.35 -29.25 18 -21.45 27.75 -49.90 26.70 -78.25 -1.05 -30.20 -12.05 -66.80 -28.15 -93.75 -19.25 -32.20 -44.30 -53.15 -72.40 -60.45 -8.30 -2.20 -12.75 -2.75 -21 -2.75 -8.55 0.05 -14.45 1.05 -23.25 4 -25.30 8.45 -49.05 30.30 -62.45 57.45 -11.25 22.75 -14.20 45.50 -9.05 69.50 6.50 30.10 26.15 56 52.35 69.20 13.90 6.95 25.25 10.05 39.90 10.85 9 0.45 14.55 -0.80 24.50 -5.55 4.45 -2.15 5.55 -2.95 9.85 -7.30 9.65 -9.75 14.65 -19.05 17.70 -32.95 0.75 -3.40 0.95 -6.35 0.95 -14.50 0 -9.20 -0.10 -10.60 -1.10 -13.75 -1.90 -6.10 -4.80 -9.60 -9.45 -11.55 -6.10 -2.60 -13.55 0.80 -17.30 7.90 -1.10 2.10 -1.15 2.60 -1.15 15.15 0 14.60 -0.30 16.60 -3.60 22.90 -3.80 7.20 -10.35 10.85 -19.65 10.85 -9.95 0 -18.90 -2.20 -28.50 -7 -18.95 -9.50 -32.25 -27.70 -36.85 -50.25 -0.70 -3.65 -0.90 -6.80 -0.90 -16.50 0.05 -11.35 0.10 -12.30 1.45 -17.95 2.35 -10.10 6.45 -19.50 12.25 -28.10 4.80 -7.25 19.45 -21 26.05 -24.50 1.25 -0.65 2.60 -1.40 3 -1.65 1.70 -1.10 7.90 -3.70 10.75 -4.55 4.65 -1.45 10.05 -2 19 -2 7.25 0 8.60 0.15 12.55 1.30 6.05 1.70 11.10 4 16.45 7.35 25 15.55 45.45 48.10 54.75 87.10 6.10 25.55 6.10 46.80 -0.05 65.75 -3.80 11.75 -9.80 21.45 -18.90 30.50 -9.15 9.10 -18.45 15.20 -30.10 19.70 -27.65 10.65 -61.80 10.40 -97.95 -0.70 -19.20 -5.90 -44.10 -18.15 -61.75 -30.25 -14.25 -9.85 -24.10 -18.05 -36.75 -30.75 -39.35 -39.35 -67.90 -93.65 -84 -159.50 -1.60 -6.65 -4.50 -21.85 -4.50 -23.70 0 -1.75 1.45 -2.70 6.90 -4.55 2.75 -0.95 8.05 -3.10 11.70 -4.80 3.65 -1.70 7.80 -3.55 9.15 -4.15 1.40 -0.60 3.65 -1.75 5 -2.55 2.85 -1.75 2.95 -1.80 8.75 -5.25 5.55 -3.30 5.60 -3.35 9.45 -6.15 10.70 -7.70 16.55 -12.85 26.50 -23.35 15.75 -16.65 24.65 -29.05 34.15 -47.55 12.40 -24.15 18.80 -48.50 20.70 -78.55 l0.30 -5.40 -94.55 0 -94.55 0 0.10 94.40 0.15 94.35 7.75 0 c4.25 -0.05 10.60 -0.25 14.05 -0.45 l6.30 -0.45 1.85 9.45 c19.50 97.50 70.30 178.85 140.55 224.95 35.55 23.35 74.30 37.55 111.70 40.95 10.45 0.95 27.70 1 34.65 0.05z"/>
 </g>
 <g fill="#0ccb91">
  <path d="M325.45 509.20 c-46.90 -4.25 -95.85 -25.55 -136.80 -59.55 -16.65 -13.80 -34.75 -33.05 -48.40 -51.40 -32.30 -43.40 -55.45 -96.85 -67.05 -154.95 l-1.85 -9.40 -4.80 0.40 c-2.65 0.25 -8.95 0.45 -14.05 0.45 l-9.25 0 -0.15 -95.85 -0.10 -95.90 96.05 0 96.10 0 -0.35 7.10 c-1.45 29.60 -8.10 55.35 -20.70 79.85 -9.50 18.50 -18.40 30.90 -34.15 47.55 -9.95 10.50 -15.80 15.65 -26.50 23.35 -3.85 2.80 -3.90 2.85 -9.45 6.15 -5.80 3.45 -5.90 3.50 -8.75 5.25 -1.35 0.80 -3.60 1.95 -5 2.55 -1.35 0.60 -5.50 2.45 -9.15 4.15 -3.65 1.70 -8.95 3.85 -11.75 4.80 -7.30 2.50 -7 1.95 -5.30 11.15 6.50 35.15 21.55 77.35 38.30 107.65 14.80 26.70 30 47.30 48.65 65.95 15.65 15.70 29.85 26.95 48.25 38.15 8.10 4.90 27.20 14.35 36.50 18 25.85 10.15 53.75 14.85 76.25 12.85 26.60 -2.40 46.45 -11 62.55 -27 7 -6.95 10.75 -12.20 14.80 -20.55 8.55 -17.45 10.75 -37.80 6.60 -60.95 -9.55 -53.55 -39.10 -96.20 -73.65 -106.20 -3.75 -1.10 -5.40 -1.30 -11.05 -1.30 -7.50 0 -13.05 0.65 -17.50 2 -2.85 0.85 -9.05 3.45 -10.75 4.55 -0.40 0.25 -1.75 1 -3 1.65 -6.60 3.50 -21.25 17.25 -26.05 24.50 -5.80 8.65 -9.90 18.05 -12.25 28.10 -1.30 5.50 -1.40 6.75 -1.45 16.45 0 8.20 0.20 11.45 0.90 15 4.65 22.80 18.10 40.95 37.35 50.45 2.90 1.45 7.65 3.35 10.65 4.30 3.05 1 5.35 2 5.35 2.35 0 0.35 -0.30 0.65 -0.65 0.65 -0.65 0 -1.35 3.35 -4.10 19 -0.70 4 -1.40 8 -1.55 8.90 -0.15 0.85 -0.40 1.60 -0.60 1.60 -0.20 0 -2.50 -0.60 -5.10 -1.30 -9.40 -2.55 -21.15 -7.95 -29.25 -13.35 -28.15 -18.75 -45.20 -51.45 -45.25 -86.85 0 -9.25 0.45 -13.90 2.30 -22.90 7.60 -37.30 37.75 -72.50 71.70 -83.80 9.35 -3.10 14.60 -3.95 24.75 -4 9.75 -0.05 13.80 0.45 22.50 2.75 9.10 2.35 17 5.70 25.20 10.70 18.30 11.10 33.95 27.60 47.20 49.75 16.45 27.60 27.25 64.10 28.20 95.25 0.75 25.95 -5.70 49.30 -19.30 69.80 -7.90 11.90 -19.50 23.75 -30.40 31 -13.70 9.10 -31.85 16.65 -47.40 19.65 -12.45 2.40 -30.95 3 -47.30 1.50z"/>
 </g>
 <g fill="#05b076">
  <path d="M339.75 442.65 c-2.80 -0.20 -12.85 -1.65 -13.30 -1.95 -0.20 -0.10 -0.10 -1.15 0.10 -2.30 0.25 -1.20 1 -5.40 1.70 -9.40 0.70 -4 1.80 -9.90 2.40 -13.20 l1.10 -5.90 3.25 0.30 c8.30 0.85 11.95 0.90 14.55 0.30 6.05 -1.45 10.80 -5.05 13.60 -10.35 3.25 -6.25 3.60 -8.30 3.60 -22.90 0 -12.60 0.05 -13.05 1.15 -15.15 3.65 -6.85 10.45 -10.15 17.75 -8.60 5.75 1.15 9.80 5.35 12 12.20 1 3.25 1.10 4.50 1.10 15.30 0 9.60 -0.15 12.50 -0.95 16 -3.05 13.90 -8.05 23.20 -17.70 32.95 -4.30 4.35 -5.40 5.15 -9.85 7.30 -10.90 5.25 -16.90 6.30 -30.50 5.40z"/>
  <path d="M43.25 104.25 c0 -33.55 0.05 -47.20 0.10 -30.35 0.10 16.90 0.10 44.35 0 61 -0.05 16.70 -0.10 2.90 -0.10 -30.65z"/>
 </g>
</svg>